<svg xmlns="http://www.w3.org/2000/svg" width="21.87" height="22.312" viewBox="0 0 21.87 22.312"><g transform="translate(0.05 0.018)"><path d="M282.815,225.367a13.117,13.117,0,0,0-.193-2.267H272.1v4.3h6.026a5.164,5.164,0,0,1-2.23,3.39v2.787h3.595A10.9,10.9,0,0,0,282.815,225.367Z" transform="translate(-260.995 -213.973)" fill="#4285f4"/><path d="M38.869,333.318a10.679,10.679,0,0,0,7.395-2.693l-3.595-2.787A6.766,6.766,0,0,1,32.61,324.3H28.9v2.873A11.157,11.157,0,0,0,38.869,333.318Z" transform="translate(-27.763 -311.024)" fill="#34a853"/><path d="M4.842,157.145a6.682,6.682,0,0,1,0-4.271V150H1.137a11.165,11.165,0,0,0,0,10.018Z" transform="translate(0 -143.869)" fill="#fbbc04"/><path d="M38.869,4.4a6.062,6.062,0,0,1,4.279,1.672l3.185-3.185a10.722,10.722,0,0,0-7.464-2.9A11.153,11.153,0,0,0,28.9,6.131L32.606,9A6.673,6.673,0,0,1,38.869,4.4Z" transform="translate(-27.763 0)" fill="#ea4335"/></g></svg>