<svg id="Calque_1" data-name="Calque 1" xmlns="http://www.w3.org/2000/svg" viewBox="0 0 218.19 40.96"><defs><style>.cls-2{fill:#fff}</style></defs><g style="isolation:isolate"><path class="cls-2" d="M59.8 11.25v2.84h-6v3.23h4.67V20h-4.71v6h-3.57V11.25zM68.35 14.81a3.64 3.64 0 011.42 1.65v-2.1h3.54V26h-3.54v-2.12a3.63 3.63 0 01-1.42 1.65 4.21 4.21 0 01-2.29.6 4.71 4.71 0 01-2.57-.72 4.92 4.92 0 01-1.79-2.08 7.19 7.19 0 01-.7-3.16 7.18 7.18 0 01.69-3.17 4.93 4.93 0 011.79-2.06 4.71 4.71 0 012.57-.72 4.22 4.22 0 012.3.59zm-3 3.27a2.94 2.94 0 00-.7 2.08 2.94 2.94 0 00.7 2.08 2.62 2.62 0 003.69 0 2.9 2.9 0 00.72-2.06A2.9 2.9 0 0069 18.1a2.63 2.63 0 00-3.69 0zM76 9.74a2.51 2.51 0 013.09 0 1.74 1.74 0 01.58 1.34 1.72 1.72 0 01-.58 1.32 2.5 2.5 0 01-3.09 0 1.71 1.71 0 01-.58-1.32A1.74 1.74 0 0176 9.74zm3.31 4.62V26h-3.54V14.36zM87.08 14.86a4.39 4.39 0 012.28-.63V18h-1a3.52 3.52 0 00-2.2.61 2.43 2.43 0 00-.78 2V26H81.8V14.36h3.56v2.19a5.06 5.06 0 011.72-1.69zM107.88 14.36L104.9 26h-4l-2.11-7.8-2.1 7.8h-4l-3-11.63h3.56l1.54 8.38L97 14.36h3.79l2.23 8.4 1.54-8.4zM115.89 14.81a3.63 3.63 0 011.42 1.65v-2.1h3.54V26h-3.54v-2.12a3.63 3.63 0 01-1.42 1.65 4.21 4.21 0 01-2.29.6 4.71 4.71 0 01-2.57-.72 4.91 4.91 0 01-1.79-2.08 7.18 7.18 0 01-.66-3.17 7.17 7.17 0 01.66-3.18 4.93 4.93 0 011.76-2.05 4.71 4.71 0 012.57-.72 4.22 4.22 0 012.32.6zm-3 3.27a2.94 2.94 0 00-.7 2.08 2.94 2.94 0 00.7 2.08 2.62 2.62 0 003.69 0 2.9 2.9 0 00.72-2.06 2.9 2.9 0 00-.72-2.07 2.63 2.63 0 00-3.69 0zM126 14.36l2.79 7.13 2.61-7.13h3.94l-7.26 17.18h-3.92l2.73-6L122 14.36zM152.09 12.58a6.77 6.77 0 012.39 4h-3.77a3.47 3.47 0 00-1.29-1.58 3.58 3.58 0 00-2.05-.58 3.13 3.13 0 00-2.52 1.15 4.62 4.62 0 00-1 3.07 4.58 4.58 0 001 3.05 3.14 3.14 0 002.52 1.14 3.58 3.58 0 002.05-.58 3.48 3.48 0 001.28-1.58h3.77a6.81 6.81 0 01-2.39 4 7.18 7.18 0 01-4.66 1.49 7.35 7.35 0 01-3.77-.95 6.44 6.44 0 01-2.51-2.66 8.34 8.34 0 01-.89-3.9 8.35 8.35 0 01.89-3.9 6.44 6.44 0 012.51-2.66 7.36 7.36 0 013.77-.95 7.21 7.21 0 014.67 1.44zM165 14.93a5.28 5.28 0 012.17 2.07 6.24 6.24 0 01.78 3.17 6.23 6.23 0 01-.78 3.17 5.28 5.28 0 01-2.17 2.08 7 7 0 01-6.2 0 5.25 5.25 0 01-2.16-2.08 6.22 6.22 0 01-.78-3.17 6.23 6.23 0 01.78-3.17 5.26 5.26 0 012.16-2.07 7 7 0 016.2 0zM160.2 18a3 3 0 00-.7 2.14 3 3 0 00.7 2.13 2.29 2.29 0 001.72.73 2.25 2.25 0 001.71-.73 3 3 0 00.69-2.13 3 3 0 00-.69-2.14 2.24 2.24 0 00-1.71-.74 2.27 2.27 0 00-1.72.74zM175.09 14.86a4.39 4.39 0 012.28-.63V18h-1a3.52 3.52 0 00-2.2.61 2.43 2.43 0 00-.78 2V26h-3.59V14.36h3.57v2.19a5.06 5.06 0 011.72-1.69zM189.44 15.57a5.35 5.35 0 011.18 3.67V26H187v-6.35a2.57 2.57 0 00-.62-1.82 2.14 2.14 0 00-1.64-.66 2.23 2.23 0 00-1.72.69 2.78 2.78 0 00-.64 2V26h-3.56V14.36h3.56v2.13a3.84 3.84 0 011.49-1.65 4.37 4.37 0 012.33-.61 4 4 0 013.24 1.34zM203.92 20.82h-8.07a2.69 2.69 0 00.67 1.89 2.15 2.15 0 001.54.57 2.11 2.11 0 001.31-.4 1.85 1.85 0 00.69-1h3.77a4.93 4.93 0 01-1 2.2 5.33 5.33 0 01-2 1.52 6.7 6.7 0 01-5.68-.17 5.13 5.13 0 01-2.07-2.08 6.44 6.44 0 01-.75-3.17 6.5 6.5 0 01.77-3.18 5.06 5.06 0 012.08-2.06 6.84 6.84 0 016.09 0 5 5 0 012 2 5.94 5.94 0 01.72 3 5 5 0 01-.07.88zm-4.12-3.22a2.27 2.27 0 00-1.57-.57 2.33 2.33 0 00-1.63.58 2.44 2.44 0 00-.73 1.71h4.54a2.15 2.15 0 00-.61-1.72zM211.16 14.86a4.39 4.39 0 012.28-.63V18h-1a3.52 3.52 0 00-2.2.61 2.43 2.43 0 00-.78 2V26h-3.57V14.36h3.57v2.19a5.05 5.05 0 011.7-1.69z"/></g><path class="cls-2" transform="rotate(-45 20.48073519 29.69660172)" d="M15.12 24.34h10.72v10.72H15.12z"/><path class="cls-2" d="M20.48 41L0 20.48 20.48 0 41 20.48zM3.69 20.48l16.79 16.79 16.79-16.79L20.48 3.69z"/></svg>