<svg id="Calque_1" data-name="Calque 1" xmlns="http://www.w3.org/2000/svg" viewBox="0 0 181.52 63.48"><defs><style>.cls-1{fill:#1d1d1b}</style></defs><path class="cls-1" d="M14.88 56.6v2.33h-6.2v3.94h5v2.25h-5v6.19H5.74V56.6zM25.82 68.36h-5.9l-1 3h-3.15l5.42-14.55h3.36l5.4 14.55h-3.11zM25 66.13l-2.17-6.21-2.17 6.21zM34.47 56.6v14.72h-2.94V56.6zM44.81 71.32l-3.44-5.73h-1.29v5.73h-2.94V56.6h5.61a5.54 5.54 0 013.91 1.25 4.69 4.69 0 01.42 6.09 4.58 4.58 0 01-2.68 1.5l3.67 5.88zm-4.73-7.76h2.42q2.52 0 2.52-2.23a2.2 2.2 0 00-.62-1.66 2.66 2.66 0 00-1.91-.59h-2.41zM69.29 56.6l-3.61 14.72h-3.63L59.3 60.65l-2.77 10.67h-3.61l-3.6-14.72h3.19L54.76 68l2.92-11.4h3.23L63.85 68l2.25-11.4zM80.25 68.36h-5.9l-1 3h-3.14l5.42-14.55H79l5.4 14.55h-3.12zm-.79-2.23l-2.17-6.21-2.17 6.21zM97.83 56.6l-5 9.57v5.15h-3v-5.15l-5-9.57h3.38l3.18 6.4 3.13-6.44zM116.38 57.81a.62.62 0 01.29.43.7.7 0 01-.12.51.52.52 0 01-.37.21.8.8 0 01-.44-.08 7 7 0 00-1.7-.81 6.33 6.33 0 00-1.95-.29 6.18 6.18 0 00-2.37.45 5.52 5.52 0 00-1.91 1.29 6 6 0 00-1.26 2 7.39 7.39 0 000 5.1 5.86 5.86 0 001.28 2 5.59 5.59 0 001.91 1.27A6.48 6.48 0 00114 70a7.45 7.45 0 001.7-.79.67.67 0 01.45-.09.54.54 0 01.39.24.57.57 0 01.14.49.6.6 0 01-.28.41 7.74 7.74 0 01-1.23.63 9.27 9.27 0 01-1.5.47 7.44 7.44 0 01-4.4-.37 7.35 7.35 0 01-2.33-1.53 7 7 0 01-1.59-2.37 7.88 7.88 0 01-.57-3.06 7.79 7.79 0 01.56-3 7.17 7.17 0 011.56-2.37 7.28 7.28 0 015.19-2.13 7.92 7.92 0 012.29.33 7.36 7.36 0 012 .95zM132.35 64a8.53 8.53 0 01-.51 3 7.12 7.12 0 01-1.45 2.38 6.52 6.52 0 01-2.22 1.62 7.4 7.4 0 01-5.61 0 6.5 6.5 0 01-2.22-1.56A7.11 7.11 0 01118.9 67a9.14 9.14 0 010-6 7.11 7.11 0 011.45-2.38 6.5 6.5 0 012.22-1.56 7.39 7.39 0 015.61 0 6.52 6.52 0 012.22 1.56 7.12 7.12 0 011.44 2.38 8.53 8.53 0 01.51 3zM131 64a7.07 7.07 0 00-.72-3.26 5.52 5.52 0 00-9.86 0 7.76 7.76 0 000 6.53 5.51 5.51 0 009.86 0A7.07 7.07 0 00131 64zM136 71.32a.71.71 0 01-.51-.19.58.58 0 01-.2-.44V57.35a.64.64 0 01.63-.62h5.63a4.37 4.37 0 012.13.51 3.77 3.77 0 011.47 1.41 3.89 3.89 0 01.53 2 4.22 4.22 0 01-.33 1.69 3.62 3.62 0 01-.94 1.3 3.91 3.91 0 01-1.35.78l-.73-.23a3.09 3.09 0 011.44.49 3.17 3.17 0 011.07 1.17 3.83 3.83 0 01.43 1.78 12.15 12.15 0 00.09 1.4 2.13 2.13 0 00.22.75 1.13 1.13 0 00.38.4.63.63 0 01.28.35.51.51 0 01-.05.44.5.5 0 01-.24.24.75.75 0 01-.32.07.74.74 0 01-.33-.08 2.31 2.31 0 01-.59-.52 2.8 2.8 0 01-.5-1 7.26 7.26 0 01-.2-1.92 3 3 0 00-.26-1.33 2.08 2.08 0 00-.67-.8 2.62 2.62 0 00-.9-.4 4.09 4.09 0 00-.93-.11h-4.85l.23-.29v5.9a.64.64 0 01-.17.44.56.56 0 01-.46.15zm.38-7.38h5.23a2.88 2.88 0 001.33-.47 3 3 0 001-1.12 3.4 3.4 0 00.39-1.65 2.63 2.63 0 00-.8-2 2.87 2.87 0 00-2.09-.78h-5l.15-.29v6.57zM160 56.73a.56.56 0 01.43.17.58.58 0 01.16.42v13.33a.63.63 0 01-.2.49.65.65 0 01-.45.18.82.82 0 01-.27-.05.5.5 0 01-.23-.16l-9.3-12.53.35-.19v12.37a.54.54 0 01-.17.4.57.57 0 01-.42.17.55.55 0 01-.58-.56V57.35a.58.58 0 01.19-.47.63.63 0 01.42-.16.82.82 0 01.27.05.45.45 0 01.23.18l9.19 12.38-.21.38v-12.4a.55.55 0 01.18-.42.58.58 0 01.41-.16zM165.09 56.73h7.65a.62.62 0 01.44.18.59.59 0 01.19.45.56.56 0 01-.19.44.64.64 0 01-.44.17h-7.17l.21-.35v5.86l-.23-.27h6.25a.64.64 0 01.63.63.56.56 0 01-.19.44.64.64 0 01-.44.17h-6.21l.19-.21v6l-.1-.13h7.07a.64.64 0 01.63.63.56.56 0 01-.19.44.64.64 0 01-.44.17h-7.65a.64.64 0 01-.62-.62V57.35a.64.64 0 01.63-.62zM177 71.32a.71.71 0 01-.51-.19.58.58 0 01-.2-.44V57.35a.64.64 0 01.63-.62h5.63a4.37 4.37 0 012.13.51 3.77 3.77 0 011.47 1.41 3.89 3.89 0 01.53 2 4.22 4.22 0 01-.33 1.69 3.62 3.62 0 01-.94 1.3 3.91 3.91 0 01-1.35.78l-.73-.23a3.09 3.09 0 011.44.49 3.17 3.17 0 011.07 1.17 3.83 3.83 0 01.43 1.78 12.15 12.15 0 00.09 1.4 2.13 2.13 0 00.22.75 1.13 1.13 0 00.38.4.63.63 0 01.28.35.51.51 0 01-.05.44.5.5 0 01-.24.24.75.75 0 01-.32.07.74.74 0 01-.33-.08 2.31 2.31 0 01-.59-.52 2.8 2.8 0 01-.5-1 7.26 7.26 0 01-.2-1.92 3 3 0 00-.26-1.33 2.08 2.08 0 00-.67-.8 2.62 2.62 0 00-.9-.4 4.09 4.09 0 00-.93-.11h-4.86l.23-.29v5.9a.64.64 0 01-.17.44.56.56 0 01-.45.15zm.38-7.38h5.23a2.88 2.88 0 001.33-.47 3 3 0 001-1.12 3.4 3.4 0 00.39-1.65 2.63 2.63 0 00-.8-2 2.87 2.87 0 00-2.09-.78h-5l.15-.29v6.57z" transform="translate(-5.74 -8.05)"/><path transform="rotate(-45 83.76857641 40.65191955)" fill="#25b196" d="M91 32.39h10.72v10.72H91z"/><path d="M96.36 49L75.88 28.53 96.36 8.05l20.48 20.48zM79.57 28.53l16.79 16.8 16.79-16.79-16.79-16.8z" transform="translate(-5.74 -8.05)"/></svg>