<svg xmlns="http://www.w3.org/2000/svg" width="20.675" height="16.798"><path d="M20.675 1.989a8.837 8.837 0 01-2.442.669A4.215 4.215 0 0020.1.315a8.47 8.47 0 01-2.688 1.026 4.238 4.238 0 00-7.332 2.9 4.364 4.364 0 00.1.967A12 12 0 011.444.775a4.24 4.24 0 001.3 5.665 4.186 4.186 0 01-1.915-.522v.047a4.258 4.258 0 003.4 4.165 4.23 4.23 0 01-1.111.14 3.748 3.748 0 01-.8-.072 4.279 4.279 0 003.952 2.949 8.516 8.516 0 01-5.255 1.808A7.94 7.94 0 010 14.9a11.933 11.933 0 006.5 1.9A11.981 11.981 0 0018.566 4.737c0-.187-.006-.368-.016-.548a8.456 8.456 0 002.125-2.2z" fill="#25b196"/></svg>