<svg xmlns="http://www.w3.org/2000/svg" width="40" height="41" viewBox="0 0 40 41">
  <g id="Groupe_216" data-name="Groupe 216" transform="translate(-0.092 0.467)">
    <ellipse id="Ellipse_59" data-name="Ellipse 59" cx="20" cy="20.5" rx="20" ry="20.5" transform="translate(0.092 -0.467)" fill="#fff"/>
    <g id="twitter" transform="translate(9.714 12.566)">
      <g id="Groupe_207" data-name="Groupe 207" transform="translate(0 0)">
        <path id="Tracé_138" data-name="Tracé 138" d="M20.675,49.989a8.837,8.837,0,0,1-2.442.669A4.215,4.215,0,0,0,20.1,48.315a8.47,8.47,0,0,1-2.688,1.026,4.238,4.238,0,0,0-7.332,2.9,4.364,4.364,0,0,0,.1.967,12,12,0,0,1-8.736-4.433,4.24,4.24,0,0,0,1.3,5.665,4.186,4.186,0,0,1-1.915-.522v.047a4.258,4.258,0,0,0,3.4,4.165,4.23,4.23,0,0,1-1.111.14,3.748,3.748,0,0,1-.8-.072A4.279,4.279,0,0,0,6.27,61.147a8.516,8.516,0,0,1-5.255,1.808A7.94,7.94,0,0,1,0,62.9a11.933,11.933,0,0,0,6.5,1.9A11.981,11.981,0,0,0,18.566,52.737c0-.187-.006-.368-.016-.548A8.456,8.456,0,0,0,20.675,49.989Z" transform="translate(0 -48)" fill="#25b196"/>
      </g>
    </g>
  </g>
</svg>
